<svg xmlns="http://www.w3.org/2000/svg" viewBox="0 0 100 100" width="100" height="100" fill="none" color="#f4f1ea">
  <rect width="100" height="100" rx="22" fill="#0a0c0f"/>
  <g transform="translate(50 50) scale(0.82) translate(-50 -50)">
    <defs><mask id="garu-cat"><g fill="#fff"><ellipse cx="48.5" cy="52.0" rx="23.0" ry="20.70"/><polygon points="44.82,42.34 29.64,40.96 27.80,19.34"/><polygon points="52.18,42.34 67.36,40.96 69.20,19.34"/></g><g fill="#000"><rect x="25.04" y="41.42" width="46.92" height="4.60" rx="2.30" transform="rotate(6 48.5 43.72)"/><ellipse cx="39.30" cy="53.38" rx="5.98" ry="2.07" transform="rotate(12 39.30 53.38)"/><ellipse cx="57.70" cy="53.38" rx="5.98" ry="2.07" transform="rotate(-12 57.70 53.38)"/><polygon points="46.66,60.28 50.34,60.28 48.5,62.58"/></g><g fill="#fff"><rect x="38.61" y="51.66" width="1.38" height="3.45" rx="0.69"/><rect x="57.01" y="51.66" width="1.38" height="3.45" rx="0.69"/></g></mask></defs>
    <path d="M 91.77 54.39 A 42 42 0 1 1 84.82 26.51" fill="none" stroke="currentColor" stroke-width="5.5" stroke-linecap="round"/>
    <rect width="100" height="100" fill="currentColor" mask="url(#garu-cat)"/>
    <g stroke="currentColor" stroke-width="3.91" stroke-linecap="round" stroke-linejoin="round"><polyline points="71.04,44.18 83.98,36.13 98.35,39.01"/><polyline points="71.04,44.18 83.11,47.63 96.34,53.95"/></g>
    <g fill="currentColor"><circle cx="71.04" cy="44.18" r="3.22"/></g>
  </g>
</svg>
